<?xml version="1.0" encoding="utf-8"?>
<!-- Generator: Adobe Illustrator 16.0.0, SVG Export Plug-In . SVG Version: 6.00 Build 0)  -->
<!DOCTYPE svg PUBLIC "-//W3C//DTD SVG 1.1//EN" "http://www.w3.org/Graphics/SVG/1.1/DTD/svg11.dtd">
<svg version="1.1" id="Layer_1" xmlns="http://www.w3.org/2000/svg" xmlns:xlink="http://www.w3.org/1999/xlink" x="0px" y="0px"
	 width="61.436px" height="60.539px" viewBox="0 0 61.436 60.539" enable-background="new 0 0 61.436 60.539" xml:space="preserve">
<path d="M57.811,45.067c0,6.627-5.373,12-12,12H15.551c-6.628,0-12-5.373-12-12V14.359c0-6.627,5.372-12,12-12h30.261
	c6.627,0,12,5.373,12,12V45.067z"/>
<g>
	<g>
		<path fill="#FFFFFF" d="M46.974,22.072c-1.588-2.209-3.757-4.094-6.27-5.449c-0.47-0.254-1.056-0.261-1.533-0.019
			c-0.477,0.242-0.771,0.695-0.771,1.188v2.823c0,0.426,0.222,0.827,0.6,1.085c3.371,2.304,5.383,5.934,5.383,9.711
			c0,6.721-6.096,12.188-13.589,12.188S17.205,38.13,17.205,31.412c0-3.778,2.012-7.408,5.383-9.711
			c0.378-0.258,0.601-0.659,0.601-1.085v-2.823c0-0.492-0.296-0.945-0.772-1.188c-0.478-0.242-1.062-0.235-1.533,0.019
			c-2.513,1.355-4.681,3.24-6.269,5.449c-2.001,2.784-3.059,6.014-3.059,9.34c0,4.608,2.001,8.942,5.635,12.201
			c3.634,3.26,8.465,5.055,13.604,5.055c5.14,0,9.972-1.795,13.604-5.055c3.634-3.259,5.635-7.593,5.635-12.201
			C50.033,28.086,48.975,24.856,46.974,22.072z"/>
		<path fill="#FFFFFF" d="M29.016,32.962h3.555c0.787,0,1.427-0.573,1.427-1.278V13.285c0-0.706-0.64-1.28-1.427-1.28h-3.555
			c-0.787,0-1.428,0.574-1.428,1.28v18.398C27.589,32.389,28.229,32.962,29.016,32.962z"/>
	</g>
</g>
</svg>
