<?xml version="1.0" encoding="utf-8"?>
<!-- Generator: Adobe Illustrator 16.0.0, SVG Export Plug-In . SVG Version: 6.00 Build 0)  -->
<!DOCTYPE svg PUBLIC "-//W3C//DTD SVG 1.1//EN" "http://www.w3.org/Graphics/SVG/1.1/DTD/svg11.dtd">
<svg version="1.1" id="Layer_1" xmlns="http://www.w3.org/2000/svg" xmlns:xlink="http://www.w3.org/1999/xlink" x="0px" y="0px"
	 width="61.436px" height="60.539px" viewBox="0 0 61.436 60.539" enable-background="new 0 0 61.436 60.539" xml:space="preserve">
<g>
	<path d="M57.811,45.067c0,6.627-5.373,12-12,12H15.551c-6.628,0-12-5.373-12-12V14.359c0-6.627,5.372-12,12-12h30.261
		c6.627,0,12,5.373,12,12V45.067z"/>
	<path fill="#F70000" d="M34.905,31.269c0,2.485-1.763,4.5-3.938,4.5l0,0c-2.175,0-3.938-2.015-3.938-4.5v-18
		c0-2.485,1.763-4.5,3.938-4.5l0,0c2.175,0,3.938,2.015,3.938,4.5V31.269z"/>
	<path fill="#F70000" d="M35.436,43.8c0,2.392-2.001,4.329-4.469,4.329l0,0c-2.468,0-4.469-1.938-4.469-4.329v-1.178
		c0-2.392,2.001-4.329,4.469-4.329l0,0c2.468,0,4.469,1.938,4.469,4.329V43.8z"/>
</g>
</svg>
